<mxfile host="app.diagrams.net" modified="2023-09-07T06:35:37.660Z" agent="Mozilla/5.0 (Windows NT 10.0; Win64; x64) AppleWebKit/537.36 (KHTML, like Gecko) Chrome/116.0.0.0 Safari/537.36 Edg/116.0.1938.69" version="21.7.2" etag="bgwngJA0RvskrjVWF-Rl" type="github">
  <diagram name="Page-1" id="6fefLnXI3OQ5Wj1WKJD0">
    <mxGraphModel>
      <root>
        <mxCell id="0" />
        <mxCell id="1" parent="0" />
      </root>
    </mxGraphModel>
  </diagram>
</mxfile>
